# Blender 4.4.3
# www.blender.org
mtllib cube.mtl
o Cube
v 1.558215 0.098303 -0.749868
v 0.550367 -1.593136 -0.398765
v 1.120845 0.741390 1.092724
v 0.112997 -0.950049 1.443828
v -0.112997 0.950049 -1.443828
v -1.120845 -0.741390 -1.092724
v -0.550367 1.593136 0.398765
v -1.558215 -0.098303 0.749868
vn 0.5039 0.8457 -0.1756
vn -0.2187 0.3215 0.9213
vn -0.8356 0.4259 -0.3470
vn -0.5039 -0.8457 0.1756
vn 0.8356 -0.4259 0.3470
vn 0.2187 -0.3215 -0.9213
vt 0.625000 0.500000
vt 0.875000 0.500000
vt 0.875000 0.750000
vt 0.625000 0.750000
vt 0.375000 0.750000
vt 0.625000 1.000000
vt 0.375000 1.000000
vt 0.375000 0.000000
vt 0.625000 0.000000
vt 0.625000 0.250000
vt 0.375000 0.250000
vt 0.125000 0.500000
vt 0.375000 0.500000
vt 0.125000 0.750000
s 0
usemtl Material
f 1/1/1 5/2/1 7/3/1 3/4/1
f 4/5/2 3/4/2 7/6/2 8/7/2
f 8/8/3 7/9/3 5/10/3 6/11/3
f 6/12/4 2/13/4 4/5/4 8/14/4
f 2/13/5 1/1/5 3/4/5 4/5/5
f 6/11/6 5/10/6 1/1/6 2/13/6